<mxfile host="app.diagrams.net" modified="2023-06-14T17:39:57.877Z" agent="Mozilla/5.0 (Windows NT 10.0; Win64; x64) AppleWebKit/537.36 (KHTML, like Gecko) Chrome/114.0.0.0 Safari/537.36" etag="nrAhaNrDXvMZ7AbtYVnT" version="21.3.8" type="github">
  <diagram name="第 1 页" id="-mfvTthw-SUDOjtEu3mz">
    <mxGraphModel dx="1482" dy="851" grid="1" gridSize="10" guides="1" tooltips="1" connect="1" arrows="1" fold="1" page="1" pageScale="1" pageWidth="827" pageHeight="1169" math="0" shadow="0">
      <root>
        <mxCell id="0" />
        <mxCell id="1" parent="0" />
        <mxCell id="PntOGYXPpVTHospnAs3C-1" value="进程创建 process_init()" style="rounded=1;whiteSpace=wrap;html=1;absoluteArcSize=1;arcSize=14;strokeWidth=2;" vertex="1" parent="1">
          <mxGeometry x="334" y="1360" width="160" height="100" as="geometry" />
        </mxCell>
        <mxCell id="PntOGYXPpVTHospnAs3C-3" value="" style="verticalLabelPosition=bottom;verticalAlign=top;html=1;shape=card;whiteSpace=wrap;size=20;arcSize=12;" vertex="1" parent="1">
          <mxGeometry x="50" y="320" width="150" height="100" as="geometry" />
        </mxCell>
        <mxCell id="PntOGYXPpVTHospnAs3C-4" value="进程" style="text;html=1;align=center;verticalAlign=middle;resizable=0;points=[];autosize=1;strokeColor=none;fillColor=none;" vertex="1" parent="1">
          <mxGeometry x="100" y="430" width="50" height="30" as="geometry" />
        </mxCell>
        <mxCell id="PntOGYXPpVTHospnAs3C-5" value="进程号" style="text;html=1;align=center;verticalAlign=middle;resizable=0;points=[];autosize=1;strokeColor=none;fillColor=none;" vertex="1" parent="1">
          <mxGeometry x="95" y="340" width="60" height="30" as="geometry" />
        </mxCell>
        <mxCell id="PntOGYXPpVTHospnAs3C-6" value="页表" style="text;html=1;align=center;verticalAlign=middle;resizable=0;points=[];autosize=1;strokeColor=none;fillColor=none;" vertex="1" parent="1">
          <mxGeometry x="100" y="370" width="50" height="30" as="geometry" />
        </mxCell>
        <mxCell id="PntOGYXPpVTHospnAs3C-8" value="" style="verticalLabelPosition=bottom;verticalAlign=top;html=1;shape=card;whiteSpace=wrap;size=20;arcSize=12;" vertex="1" parent="1">
          <mxGeometry x="305" y="320" width="150" height="100" as="geometry" />
        </mxCell>
        <mxCell id="PntOGYXPpVTHospnAs3C-9" value="页表项" style="text;html=1;align=center;verticalAlign=middle;resizable=0;points=[];autosize=1;strokeColor=none;fillColor=none;" vertex="1" parent="1">
          <mxGeometry x="350" y="430" width="60" height="30" as="geometry" />
        </mxCell>
        <mxCell id="PntOGYXPpVTHospnAs3C-10" value="页表项是否使用" style="text;html=1;align=center;verticalAlign=middle;resizable=0;points=[];autosize=1;strokeColor=none;fillColor=none;" vertex="1" parent="1">
          <mxGeometry x="325" y="340" width="110" height="30" as="geometry" />
        </mxCell>
        <mxCell id="PntOGYXPpVTHospnAs3C-11" value="页表项对应物理地址" style="text;html=1;align=center;verticalAlign=middle;resizable=0;points=[];autosize=1;strokeColor=none;fillColor=none;" vertex="1" parent="1">
          <mxGeometry x="315" y="370" width="130" height="30" as="geometry" />
        </mxCell>
        <mxCell id="PntOGYXPpVTHospnAs3C-12" value="页表项" style="rounded=0;whiteSpace=wrap;html=1;" vertex="1" parent="1">
          <mxGeometry x="320" y="70" width="120" height="60" as="geometry" />
        </mxCell>
        <mxCell id="PntOGYXPpVTHospnAs3C-13" value="页表项" style="rounded=0;whiteSpace=wrap;html=1;" vertex="1" parent="1">
          <mxGeometry x="320" y="130" width="120" height="60" as="geometry" />
        </mxCell>
        <mxCell id="PntOGYXPpVTHospnAs3C-14" value="页表项" style="rounded=0;whiteSpace=wrap;html=1;" vertex="1" parent="1">
          <mxGeometry x="320" y="190" width="120" height="60" as="geometry" />
        </mxCell>
        <mxCell id="PntOGYXPpVTHospnAs3C-15" value="页表" style="text;html=1;align=center;verticalAlign=middle;resizable=0;points=[];autosize=1;strokeColor=none;fillColor=none;" vertex="1" parent="1">
          <mxGeometry x="355" y="258" width="50" height="30" as="geometry" />
        </mxCell>
        <mxCell id="PntOGYXPpVTHospnAs3C-16" value="物理项" style="rounded=0;whiteSpace=wrap;html=1;" vertex="1" parent="1">
          <mxGeometry x="560" y="70" width="120" height="60" as="geometry" />
        </mxCell>
        <mxCell id="PntOGYXPpVTHospnAs3C-17" value="物理项" style="rounded=0;whiteSpace=wrap;html=1;" vertex="1" parent="1">
          <mxGeometry x="560" y="130" width="120" height="60" as="geometry" />
        </mxCell>
        <mxCell id="PntOGYXPpVTHospnAs3C-18" value="物理项" style="rounded=0;whiteSpace=wrap;html=1;" vertex="1" parent="1">
          <mxGeometry x="560" y="190" width="120" height="60" as="geometry" />
        </mxCell>
        <mxCell id="PntOGYXPpVTHospnAs3C-19" value="内存" style="text;html=1;align=center;verticalAlign=middle;resizable=0;points=[];autosize=1;strokeColor=none;fillColor=none;" vertex="1" parent="1">
          <mxGeometry x="595" y="258" width="50" height="30" as="geometry" />
        </mxCell>
        <mxCell id="PntOGYXPpVTHospnAs3C-20" value="" style="verticalLabelPosition=bottom;verticalAlign=top;html=1;shape=card;whiteSpace=wrap;size=20;arcSize=12;" vertex="1" parent="1">
          <mxGeometry x="545" y="320" width="150" height="100" as="geometry" />
        </mxCell>
        <mxCell id="PntOGYXPpVTHospnAs3C-21" value="页表项是否使用" style="text;html=1;align=center;verticalAlign=middle;resizable=0;points=[];autosize=1;strokeColor=none;fillColor=none;" vertex="1" parent="1">
          <mxGeometry x="565" y="340" width="110" height="30" as="geometry" />
        </mxCell>
        <mxCell id="PntOGYXPpVTHospnAs3C-22" value="页表项对应物理地址" style="text;html=1;align=center;verticalAlign=middle;resizable=0;points=[];autosize=1;strokeColor=none;fillColor=none;" vertex="1" parent="1">
          <mxGeometry x="555" y="370" width="130" height="30" as="geometry" />
        </mxCell>
        <mxCell id="PntOGYXPpVTHospnAs3C-23" value="进程" style="rounded=0;whiteSpace=wrap;html=1;" vertex="1" parent="1">
          <mxGeometry x="65" y="70" width="120" height="60" as="geometry" />
        </mxCell>
        <mxCell id="PntOGYXPpVTHospnAs3C-24" value="进程" style="rounded=0;whiteSpace=wrap;html=1;" vertex="1" parent="1">
          <mxGeometry x="65" y="130" width="120" height="60" as="geometry" />
        </mxCell>
        <mxCell id="PntOGYXPpVTHospnAs3C-25" value="进程" style="rounded=0;whiteSpace=wrap;html=1;" vertex="1" parent="1">
          <mxGeometry x="65" y="190" width="120" height="60" as="geometry" />
        </mxCell>
        <mxCell id="PntOGYXPpVTHospnAs3C-26" value="进程池" style="text;html=1;align=center;verticalAlign=middle;resizable=0;points=[];autosize=1;strokeColor=none;fillColor=none;" vertex="1" parent="1">
          <mxGeometry x="95" y="258" width="60" height="30" as="geometry" />
        </mxCell>
        <mxCell id="PntOGYXPpVTHospnAs3C-28" value="物理项" style="text;html=1;align=center;verticalAlign=middle;resizable=0;points=[];autosize=1;strokeColor=none;fillColor=none;" vertex="1" parent="1">
          <mxGeometry x="590" y="428" width="60" height="30" as="geometry" />
        </mxCell>
        <mxCell id="PntOGYXPpVTHospnAs3C-45" style="edgeStyle=orthogonalEdgeStyle;rounded=0;orthogonalLoop=1;jettySize=auto;html=1;exitX=1;exitY=0.5;exitDx=0;exitDy=0;entryX=0;entryY=0.5;entryDx=0;entryDy=0;" edge="1" parent="1" source="PntOGYXPpVTHospnAs3C-33" target="PntOGYXPpVTHospnAs3C-42">
          <mxGeometry relative="1" as="geometry" />
        </mxCell>
        <mxCell id="PntOGYXPpVTHospnAs3C-33" value="页表项" style="rounded=0;whiteSpace=wrap;html=1;" vertex="1" parent="1">
          <mxGeometry x="250" y="610" width="120" height="60" as="geometry" />
        </mxCell>
        <mxCell id="PntOGYXPpVTHospnAs3C-46" style="edgeStyle=orthogonalEdgeStyle;rounded=0;orthogonalLoop=1;jettySize=auto;html=1;exitX=1;exitY=0.5;exitDx=0;exitDy=0;entryX=0.01;entryY=0.63;entryDx=0;entryDy=0;entryPerimeter=0;" edge="1" parent="1" source="PntOGYXPpVTHospnAs3C-34" target="PntOGYXPpVTHospnAs3C-37">
          <mxGeometry relative="1" as="geometry">
            <Array as="points">
              <mxPoint x="550" y="700" />
              <mxPoint x="550" y="882" />
            </Array>
          </mxGeometry>
        </mxCell>
        <mxCell id="PntOGYXPpVTHospnAs3C-34" value="页表项" style="rounded=0;whiteSpace=wrap;html=1;" vertex="1" parent="1">
          <mxGeometry x="250" y="670" width="120" height="60" as="geometry" />
        </mxCell>
        <mxCell id="PntOGYXPpVTHospnAs3C-35" value="页表项" style="rounded=0;whiteSpace=wrap;html=1;" vertex="1" parent="1">
          <mxGeometry x="250" y="730" width="120" height="60" as="geometry" />
        </mxCell>
        <mxCell id="PntOGYXPpVTHospnAs3C-36" value="页表" style="text;html=1;align=center;verticalAlign=middle;resizable=0;points=[];autosize=1;strokeColor=none;fillColor=none;" vertex="1" parent="1">
          <mxGeometry x="285" y="800" width="50" height="30" as="geometry" />
        </mxCell>
        <mxCell id="PntOGYXPpVTHospnAs3C-37" value="物理项" style="rounded=0;whiteSpace=wrap;html=1;" vertex="1" parent="1">
          <mxGeometry x="640" y="844" width="120" height="60" as="geometry" />
        </mxCell>
        <mxCell id="PntOGYXPpVTHospnAs3C-38" value="物理项" style="rounded=0;whiteSpace=wrap;html=1;" vertex="1" parent="1">
          <mxGeometry x="640" y="904" width="120" height="60" as="geometry" />
        </mxCell>
        <mxCell id="PntOGYXPpVTHospnAs3C-39" value="物理项" style="rounded=0;whiteSpace=wrap;html=1;" vertex="1" parent="1">
          <mxGeometry x="640" y="964" width="120" height="60" as="geometry" />
        </mxCell>
        <mxCell id="PntOGYXPpVTHospnAs3C-40" value="内存" style="text;html=1;align=center;verticalAlign=middle;resizable=0;points=[];autosize=1;strokeColor=none;fillColor=none;" vertex="1" parent="1">
          <mxGeometry x="675" y="1032" width="50" height="30" as="geometry" />
        </mxCell>
        <mxCell id="PntOGYXPpVTHospnAs3C-41" value="物理项" style="rounded=0;whiteSpace=wrap;html=1;" vertex="1" parent="1">
          <mxGeometry x="640" y="784" width="120" height="60" as="geometry" />
        </mxCell>
        <mxCell id="PntOGYXPpVTHospnAs3C-42" value="物理项" style="rounded=0;whiteSpace=wrap;html=1;" vertex="1" parent="1">
          <mxGeometry x="640" y="724" width="120" height="60" as="geometry" />
        </mxCell>
        <mxCell id="PntOGYXPpVTHospnAs3C-44" style="edgeStyle=orthogonalEdgeStyle;rounded=0;orthogonalLoop=1;jettySize=auto;html=1;exitX=1;exitY=0.5;exitDx=0;exitDy=0;entryX=0;entryY=0.5;entryDx=0;entryDy=0;" edge="1" parent="1" source="PntOGYXPpVTHospnAs3C-43" target="PntOGYXPpVTHospnAs3C-34">
          <mxGeometry relative="1" as="geometry" />
        </mxCell>
        <mxCell id="PntOGYXPpVTHospnAs3C-43" value="进程A" style="whiteSpace=wrap;html=1;" vertex="1" parent="1">
          <mxGeometry x="80" y="670" width="120" height="60" as="geometry" />
        </mxCell>
        <mxCell id="PntOGYXPpVTHospnAs3C-53" style="edgeStyle=orthogonalEdgeStyle;rounded=0;orthogonalLoop=1;jettySize=auto;html=1;exitX=1;exitY=0.5;exitDx=0;exitDy=0;entryX=0;entryY=0.5;entryDx=0;entryDy=0;" edge="1" parent="1" source="PntOGYXPpVTHospnAs3C-47" target="PntOGYXPpVTHospnAs3C-41">
          <mxGeometry relative="1" as="geometry" />
        </mxCell>
        <mxCell id="PntOGYXPpVTHospnAs3C-47" value="页表项" style="rounded=0;whiteSpace=wrap;html=1;" vertex="1" parent="1">
          <mxGeometry x="250" y="803" width="120" height="60" as="geometry" />
        </mxCell>
        <mxCell id="PntOGYXPpVTHospnAs3C-54" style="edgeStyle=orthogonalEdgeStyle;rounded=0;orthogonalLoop=1;jettySize=auto;html=1;exitX=1;exitY=0.5;exitDx=0;exitDy=0;" edge="1" parent="1" source="PntOGYXPpVTHospnAs3C-48" target="PntOGYXPpVTHospnAs3C-38">
          <mxGeometry relative="1" as="geometry" />
        </mxCell>
        <mxCell id="PntOGYXPpVTHospnAs3C-48" value="页表项" style="rounded=0;whiteSpace=wrap;html=1;" vertex="1" parent="1">
          <mxGeometry x="250" y="863" width="120" height="60" as="geometry" />
        </mxCell>
        <mxCell id="PntOGYXPpVTHospnAs3C-49" value="页表项" style="rounded=0;whiteSpace=wrap;html=1;" vertex="1" parent="1">
          <mxGeometry x="250" y="923" width="120" height="60" as="geometry" />
        </mxCell>
        <mxCell id="PntOGYXPpVTHospnAs3C-51" style="edgeStyle=orthogonalEdgeStyle;rounded=0;orthogonalLoop=1;jettySize=auto;html=1;exitX=1;exitY=0.5;exitDx=0;exitDy=0;entryX=0;entryY=0.5;entryDx=0;entryDy=0;" edge="1" parent="1" source="PntOGYXPpVTHospnAs3C-52" target="PntOGYXPpVTHospnAs3C-48">
          <mxGeometry relative="1" as="geometry" />
        </mxCell>
        <mxCell id="PntOGYXPpVTHospnAs3C-52" value="进程B" style="whiteSpace=wrap;html=1;" vertex="1" parent="1">
          <mxGeometry x="80" y="863" width="120" height="60" as="geometry" />
        </mxCell>
        <mxCell id="PntOGYXPpVTHospnAs3C-55" value="页表" style="text;html=1;align=center;verticalAlign=middle;resizable=0;points=[];autosize=1;strokeColor=none;fillColor=none;" vertex="1" parent="1">
          <mxGeometry x="285" y="990" width="50" height="30" as="geometry" />
        </mxCell>
        <mxCell id="PntOGYXPpVTHospnAs3C-62" style="edgeStyle=orthogonalEdgeStyle;rounded=0;orthogonalLoop=1;jettySize=auto;html=1;exitX=1;exitY=0.5;exitDx=0;exitDy=0;entryX=0;entryY=0.5;entryDx=0;entryDy=0;" edge="1" parent="1" source="PntOGYXPpVTHospnAs3C-56" target="PntOGYXPpVTHospnAs3C-39">
          <mxGeometry relative="1" as="geometry" />
        </mxCell>
        <mxCell id="PntOGYXPpVTHospnAs3C-56" value="页表项" style="rounded=0;whiteSpace=wrap;html=1;" vertex="1" parent="1">
          <mxGeometry x="250" y="993" width="120" height="60" as="geometry" />
        </mxCell>
        <mxCell id="PntOGYXPpVTHospnAs3C-57" value="页表项" style="rounded=0;whiteSpace=wrap;html=1;" vertex="1" parent="1">
          <mxGeometry x="250" y="1053" width="120" height="60" as="geometry" />
        </mxCell>
        <mxCell id="PntOGYXPpVTHospnAs3C-58" value="页表项" style="rounded=0;whiteSpace=wrap;html=1;" vertex="1" parent="1">
          <mxGeometry x="250" y="1113" width="120" height="60" as="geometry" />
        </mxCell>
        <mxCell id="PntOGYXPpVTHospnAs3C-59" value="页表" style="text;html=1;align=center;verticalAlign=middle;resizable=0;points=[];autosize=1;strokeColor=none;fillColor=none;" vertex="1" parent="1">
          <mxGeometry x="285" y="1183" width="50" height="30" as="geometry" />
        </mxCell>
        <mxCell id="PntOGYXPpVTHospnAs3C-60" style="edgeStyle=orthogonalEdgeStyle;rounded=0;orthogonalLoop=1;jettySize=auto;html=1;exitX=1;exitY=0.5;exitDx=0;exitDy=0;entryX=0;entryY=0.5;entryDx=0;entryDy=0;" edge="1" parent="1" source="PntOGYXPpVTHospnAs3C-61" target="PntOGYXPpVTHospnAs3C-57">
          <mxGeometry relative="1" as="geometry" />
        </mxCell>
        <mxCell id="PntOGYXPpVTHospnAs3C-61" value="进程C" style="whiteSpace=wrap;html=1;" vertex="1" parent="1">
          <mxGeometry x="80" y="1053" width="120" height="60" as="geometry" />
        </mxCell>
        <mxCell id="PntOGYXPpVTHospnAs3C-64" value="根据进程池的进程号进行比对，生成一个不重复的pid号" style="rounded=1;whiteSpace=wrap;html=1;absoluteArcSize=1;arcSize=14;strokeWidth=2;" vertex="1" parent="1">
          <mxGeometry x="334" y="1500" width="160" height="100" as="geometry" />
        </mxCell>
        <mxCell id="PntOGYXPpVTHospnAs3C-66" value="根据进程池的进程号进行比对，生成一个不重复的pid号" style="rounded=1;whiteSpace=wrap;html=1;absoluteArcSize=1;arcSize=14;strokeWidth=2;" vertex="1" parent="1">
          <mxGeometry x="335" y="1640" width="160" height="100" as="geometry" />
        </mxCell>
      </root>
    </mxGraphModel>
  </diagram>
</mxfile>
